<mxfile host="app.diagrams.net" modified="2020-12-23T08:47:18.209Z" agent="5.0 (Macintosh; Intel Mac OS X 11_1_0) AppleWebKit/537.36 (KHTML, like Gecko) Chrome/87.0.4280.88 Safari/537.36" etag="r6tjZhvKCxuNmy5lPwfJ" version="14.1.1" type="github">
  <diagram id="C5RBs43oDa-KdzZeNtuy" name="Page-1">
    <mxGraphModel dx="1426" dy="794" grid="1" gridSize="10" guides="1" tooltips="1" connect="1" arrows="1" fold="1" page="1" pageScale="1" pageWidth="827" pageHeight="1169" background="#E6E6E6" math="0" shadow="0">
      <root>
        <mxCell id="WIyWlLk6GJQsqaUBKTNV-0" />
        <mxCell id="WIyWlLk6GJQsqaUBKTNV-1" parent="WIyWlLk6GJQsqaUBKTNV-0" />
        <mxCell id="eAKRjEN__uNZkLg6umnI-6" style="edgeStyle=orthogonalEdgeStyle;rounded=0;orthogonalLoop=1;jettySize=auto;html=1;exitX=0.5;exitY=1;exitDx=0;exitDy=0;entryX=0.5;entryY=0;entryDx=0;entryDy=0;fillColor=#fff2cc;strokeColor=#d6b656;" edge="1" parent="WIyWlLk6GJQsqaUBKTNV-1" source="eAKRjEN__uNZkLg6umnI-1" target="eAKRjEN__uNZkLg6umnI-2">
          <mxGeometry relative="1" as="geometry" />
        </mxCell>
        <mxCell id="eAKRjEN__uNZkLg6umnI-1" value="Start" style="ellipse;whiteSpace=wrap;html=1;fillColor=#fff2cc;strokeColor=#d6b656;" vertex="1" parent="WIyWlLk6GJQsqaUBKTNV-1">
          <mxGeometry x="359" y="160" width="90" height="40" as="geometry" />
        </mxCell>
        <mxCell id="eAKRjEN__uNZkLg6umnI-8" style="edgeStyle=orthogonalEdgeStyle;rounded=0;orthogonalLoop=1;jettySize=auto;html=1;exitX=0.5;exitY=1;exitDx=0;exitDy=0;entryX=0.5;entryY=0;entryDx=0;entryDy=0;fillColor=#fff2cc;strokeColor=#d6b656;" edge="1" parent="WIyWlLk6GJQsqaUBKTNV-1" source="eAKRjEN__uNZkLg6umnI-2" target="eAKRjEN__uNZkLg6umnI-4">
          <mxGeometry relative="1" as="geometry" />
        </mxCell>
        <mxCell id="eAKRjEN__uNZkLg6umnI-15" style="edgeStyle=orthogonalEdgeStyle;rounded=0;orthogonalLoop=1;jettySize=auto;html=1;exitX=0.25;exitY=1;exitDx=0;exitDy=0;entryX=1;entryY=0.5;entryDx=0;entryDy=0;fillColor=#fff2cc;strokeColor=#d6b656;" edge="1" parent="WIyWlLk6GJQsqaUBKTNV-1" source="eAKRjEN__uNZkLg6umnI-2" target="eAKRjEN__uNZkLg6umnI-3">
          <mxGeometry relative="1" as="geometry" />
        </mxCell>
        <mxCell id="eAKRjEN__uNZkLg6umnI-16" style="edgeStyle=orthogonalEdgeStyle;rounded=0;orthogonalLoop=1;jettySize=auto;html=1;exitX=0.75;exitY=1;exitDx=0;exitDy=0;entryX=0;entryY=0.5;entryDx=0;entryDy=0;fillColor=#fff2cc;strokeColor=#d6b656;" edge="1" parent="WIyWlLk6GJQsqaUBKTNV-1" source="eAKRjEN__uNZkLg6umnI-2" target="eAKRjEN__uNZkLg6umnI-5">
          <mxGeometry relative="1" as="geometry">
            <mxPoint x="440" y="300" as="targetPoint" />
          </mxGeometry>
        </mxCell>
        <mxCell id="eAKRjEN__uNZkLg6umnI-2" value="Table A" style="rounded=1;whiteSpace=wrap;html=1;fillColor=#fff2cc;strokeColor=#d6b656;" vertex="1" parent="WIyWlLk6GJQsqaUBKTNV-1">
          <mxGeometry x="363" y="230" width="86" height="30" as="geometry" />
        </mxCell>
        <mxCell id="eAKRjEN__uNZkLg6umnI-3" value="Filed 1" style="rounded=1;whiteSpace=wrap;html=1;fillColor=#fff2cc;strokeColor=#d6b656;" vertex="1" parent="WIyWlLk6GJQsqaUBKTNV-1">
          <mxGeometry x="320" y="280" width="41.5" height="30" as="geometry" />
        </mxCell>
        <mxCell id="eAKRjEN__uNZkLg6umnI-4" value="Filed 2" style="rounded=1;whiteSpace=wrap;html=1;fillColor=#fff2cc;strokeColor=#d6b656;" vertex="1" parent="WIyWlLk6GJQsqaUBKTNV-1">
          <mxGeometry x="383.25" y="343.75" width="41.5" height="30" as="geometry" />
        </mxCell>
        <mxCell id="eAKRjEN__uNZkLg6umnI-5" value="Filed 3" style="rounded=1;whiteSpace=wrap;html=1;fillColor=#fff2cc;strokeColor=#d6b656;" vertex="1" parent="WIyWlLk6GJQsqaUBKTNV-1">
          <mxGeometry x="450" y="280" width="40.5" height="30" as="geometry" />
        </mxCell>
        <mxCell id="eAKRjEN__uNZkLg6umnI-18" style="edgeStyle=orthogonalEdgeStyle;rounded=0;orthogonalLoop=1;jettySize=auto;html=1;exitX=1;exitY=0.5;exitDx=0;exitDy=0;entryX=0;entryY=0.5;entryDx=0;entryDy=0;fillColor=#fff2cc;strokeColor=#d6b656;" edge="1" parent="WIyWlLk6GJQsqaUBKTNV-1" source="eAKRjEN__uNZkLg6umnI-10" target="eAKRjEN__uNZkLg6umnI-17">
          <mxGeometry relative="1" as="geometry" />
        </mxCell>
        <mxCell id="eAKRjEN__uNZkLg6umnI-23" style="edgeStyle=orthogonalEdgeStyle;rounded=0;orthogonalLoop=1;jettySize=auto;html=1;exitX=0.5;exitY=1;exitDx=0;exitDy=0;" edge="1" parent="WIyWlLk6GJQsqaUBKTNV-1" source="eAKRjEN__uNZkLg6umnI-10" target="eAKRjEN__uNZkLg6umnI-22">
          <mxGeometry relative="1" as="geometry" />
        </mxCell>
        <mxCell id="eAKRjEN__uNZkLg6umnI-10" value="Table O" style="rounded=1;whiteSpace=wrap;html=1;fillColor=#fff2cc;strokeColor=#d6b656;" vertex="1" parent="WIyWlLk6GJQsqaUBKTNV-1">
          <mxGeometry x="70" y="230" width="86" height="30" as="geometry" />
        </mxCell>
        <mxCell id="eAKRjEN__uNZkLg6umnI-19" style="edgeStyle=orthogonalEdgeStyle;rounded=0;orthogonalLoop=1;jettySize=auto;html=1;exitX=1;exitY=0.5;exitDx=0;exitDy=0;fillColor=#fff2cc;strokeColor=#d6b656;" edge="1" parent="WIyWlLk6GJQsqaUBKTNV-1" source="eAKRjEN__uNZkLg6umnI-17" target="eAKRjEN__uNZkLg6umnI-2">
          <mxGeometry relative="1" as="geometry" />
        </mxCell>
        <mxCell id="eAKRjEN__uNZkLg6umnI-25" style="edgeStyle=orthogonalEdgeStyle;rounded=0;orthogonalLoop=1;jettySize=auto;html=1;exitX=0.5;exitY=1;exitDx=0;exitDy=0;" edge="1" parent="WIyWlLk6GJQsqaUBKTNV-1" source="eAKRjEN__uNZkLg6umnI-17" target="eAKRjEN__uNZkLg6umnI-24">
          <mxGeometry relative="1" as="geometry" />
        </mxCell>
        <mxCell id="eAKRjEN__uNZkLg6umnI-17" value="Process" style="shape=process;whiteSpace=wrap;html=1;backgroundOutline=1;fillColor=#fff2cc;strokeColor=#d6b656;" vertex="1" parent="WIyWlLk6GJQsqaUBKTNV-1">
          <mxGeometry x="210" y="226.25" width="90" height="37.5" as="geometry" />
        </mxCell>
        <mxCell id="eAKRjEN__uNZkLg6umnI-21" style="edgeStyle=orthogonalEdgeStyle;rounded=0;orthogonalLoop=1;jettySize=auto;html=1;exitX=0.5;exitY=1;exitDx=0;exitDy=0;entryX=0.5;entryY=0;entryDx=0;entryDy=0;" edge="1" parent="WIyWlLk6GJQsqaUBKTNV-1" source="eAKRjEN__uNZkLg6umnI-20" target="eAKRjEN__uNZkLg6umnI-17">
          <mxGeometry relative="1" as="geometry" />
        </mxCell>
        <mxCell id="eAKRjEN__uNZkLg6umnI-20" value="1. 规则&lt;br&gt;2. 映射&lt;br&gt;3. 模型&lt;br&gt;4. 标签&lt;br&gt;5. 推送" style="text;html=1;strokeColor=#d6b656;fillColor=#fff2cc;align=left;verticalAlign=middle;whiteSpace=wrap;rounded=0;" vertex="1" parent="WIyWlLk6GJQsqaUBKTNV-1">
          <mxGeometry x="233" y="145" width="44" height="70" as="geometry" />
        </mxCell>
        <mxCell id="eAKRjEN__uNZkLg6umnI-26" style="edgeStyle=orthogonalEdgeStyle;rounded=0;orthogonalLoop=1;jettySize=auto;html=1;exitX=1;exitY=0.5;exitDx=0;exitDy=0;" edge="1" parent="WIyWlLk6GJQsqaUBKTNV-1" source="eAKRjEN__uNZkLg6umnI-22" target="eAKRjEN__uNZkLg6umnI-24">
          <mxGeometry relative="1" as="geometry" />
        </mxCell>
        <mxCell id="eAKRjEN__uNZkLg6umnI-22" value="Filed 2" style="rounded=1;whiteSpace=wrap;html=1;fillColor=#fff2cc;strokeColor=#d6b656;" vertex="1" parent="WIyWlLk6GJQsqaUBKTNV-1">
          <mxGeometry x="92.25" y="343.75" width="41.5" height="30" as="geometry" />
        </mxCell>
        <mxCell id="eAKRjEN__uNZkLg6umnI-27" style="edgeStyle=orthogonalEdgeStyle;rounded=0;orthogonalLoop=1;jettySize=auto;html=1;exitX=1;exitY=0.5;exitDx=0;exitDy=0;entryX=0;entryY=0.5;entryDx=0;entryDy=0;" edge="1" parent="WIyWlLk6GJQsqaUBKTNV-1" source="eAKRjEN__uNZkLg6umnI-24" target="eAKRjEN__uNZkLg6umnI-4">
          <mxGeometry relative="1" as="geometry" />
        </mxCell>
        <mxCell id="eAKRjEN__uNZkLg6umnI-24" value="Process" style="shape=process;whiteSpace=wrap;html=1;backgroundOutline=1;fillColor=#fff2cc;strokeColor=#d6b656;" vertex="1" parent="WIyWlLk6GJQsqaUBKTNV-1">
          <mxGeometry x="210" y="340" width="90" height="37.5" as="geometry" />
        </mxCell>
      </root>
    </mxGraphModel>
  </diagram>
</mxfile>
